# ProBuilder 5.0.7
# https://unity3d.com/unity/features/worldbuilding/probuilder
# 22/06/2023 14:08:31

mtllib ./Wall_Cuverd_Inside_invertido.mtl
o Wall_Cuverd_Inside_invertido

g Wall_Cuverd_Inside (63)
v -46.00863 4.001444 51.34855
v -54.58001 4.001433 51.34856
v -54.58001 3.881359 50.82475
v -45.4847 3.881373 50.82474
v -45.46135 6.766229 50.80087
v -54.58001 6.766212 50.80094
v -54.58001 6.599956 51.34856
v -46.0086 6.599973 51.34855
v -54.58001 6.47003 50.87236
v -45.53239 6.470039 50.87237
v -45.53236 4.124873 50.87233
v -54.58001 4.124863 50.87236
v -44.58 10.65168 49.91999
v -54.58 10.65168 49.91998
v -54.58 9.92508 49.44379
v -44.10331 9.9251 49.44413
v -44.10405 11.59998 49.44436
v -54.58 11.59996 49.44379
v -54.58 1.599954 49.91998
v -44.58 1.599957 49.92
v -46.00856 4.001441 59.92
v -45.48475 3.881367 59.92
v -45.46094 6.766222 59.92
v -46.00856 6.599965 59.92
v -45.53236 6.470038 59.92
v -45.53237 4.124871 59.92
v -44.57998 10.65169 59.91999
v -44.10379 9.925092 59.91999
v -44.10379 11.59997 59.91999
v -44.57999 1.599963 59.92

vt 0.9014511 0.8506158
vt 0.9014511 0.002242676
vt 0.9493119 0.002242677
vt 0.9493118 0.8506158
vt 0.03043677 0.002242694
vt 0.03043674 0.8506158
vt 0.002242667 0.8506158
vt 0.002242694 0.002242694
vt 0.9977573 0.002242694
vt 0.9977573 0.8506158
vt 0.9537972 0.8506158
vt 0.7578964 0.4264292
vt 0.3618883 0.002242694
vt 0.3618882 0.8506158
vt 0.3391756 0.8506158
vt 0.3391756 0.002242694
vt 0.8969656 0.002242694
vt 0.8969656 0.8506158
vt 0.8400697 0.8506158
vt 0.8400697 0.002242694
vt 0.8355843 0.002242694
vt 0.8355843 0.8506158
vt 0.7424896 0.8506158
vt 0.7424897 0.002242694
vt 0.3346902 0.002242747
vt 0.3346901 0.8506158
vt 0.7380043 0.002242694
vt 0.7380042 0.8506158
vt 0.5664809 0.8506158
vt 0.566481 0.002242694
vt 0.5619955 0.8506158
vt 0.9537973 0.002242694
vt 0.5619956 0.002242694

vn -0.0007628892 487.3596 -111.7177
vn -0.0007185786 487.3594 -111.7183
vn -0.0008071997 487.3597 -111.7171
vn 0.0001183627 -478.4393 -145.2448
vn -0.0004446422 -478.4369 -145.2526
vn 0.0006813675 -478.4416 -145.237
vn -0.0008326272 482.3663 -131.6167
vn -0.001192669 482.3678 -131.6113
vn -0.0004725856 482.3648 -131.6222
vn 0.0002208582 -484.0066 -125.4502
vn -7.911868E-05 -484.0054 -125.455
vn 0.0005208352 -484.0079 -125.4453
vn 0.007365041 274.0095 -418.233
vn 0.0003886377 274.0704 -418.1931
vn 0.01434144 273.9485 -418.2729
vn 0.01387495 -224.2734 -446.8797
vn 0.02725058 -224.3805 -446.826
vn 0.0004993306 -224.1664 -446.9334
vn 0.006465332 -197.3445 -459.4074
vn 0.01670896 -197.3705 -459.3963
vn -0.003778295 -197.3184 -459.4186
vn 3.328888E-05 184.323 -464.785
vn -0.0005952358 184.3249 -464.7842
vn 0.0006618137 184.321 -464.7858
vn -0.001238842 0.004286462 -500
vn -2.24078E-05 2.980215E-05 -500
vn -0.002455277 0.008543121 -500
vn 122.8413 486.1205 5.128111E-05
vn 122.8272 486.1237 -0.000732547
vn 122.8555 486.1172 0.0008351092
vn 159.4982 -476.3671 -0.003934517
vn 159.5437 -476.3533 -0.006836928
vn 159.4527 -476.3809 -0.001032106
vn 144.5913 480.6634 -0.0002764496
vn 144.5929 480.6629 -0.0001922004
vn 144.5897 480.6638 -0.0003606988
vn 137.8592 -482.4541 -0.0005476681
vn 137.849 -482.4567 6.193647E-06
vn 137.8694 -482.4514 -0.00110153
vn 445.2996 264.8465 0.009196541
vn 445.2314 264.9506 -0.0008352927
vn 445.3678 264.7425 0.01922837
vn 473.6442 -215.6807 -0.005587157
vn 473.6662 -215.6368 -0.01070282
vn 473.6221 -215.7246 -0.0004714979
vn 485.8771 -189.3981 0.0003688524
vn 485.8556 -189.4481 0.02059374
vn 485.8986 -189.3481 -0.01985603
vn 491.1385 176.6611 0.0008483163
vn 491.1408 176.6552 0.002388779
vn 491.1361 176.667 -0.0006921465
vn 525.0001 0.003401467 -0.000498823
vn 525.0001 0.006876327 -0.001399509
vn 525.0001 -7.339241E-05 0.0004018633

usemtl Wall_Cuverd_Inside_Lines
f 4/4/3 3/3/1 2/2/2 1/1/1
f 8/8/6 7/7/4 6/6/5 5/5/4
f 10/12/9 9/11/7 7/10/8 8/9/7
f 1/16/12 2/15/10 12/14/11 11/13/10
f 22/4/30 4/3/28 1/2/29 21/1/28
f 24/8/33 8/7/31 5/6/32 23/5/31
f 25/32/36 10/12/34 8/10/35 24/9/34
f 21/16/39 1/15/37 11/14/38 26/13/37

usemtl Wall_Cuverd_Inside_top
f 16/20/15 15/19/13 14/18/14 13/17/13
f 13/24/18 14/23/16 18/22/17 17/21/16
f 28/20/42 16/19/40 13/18/41 27/17/40
f 27/24/45 13/23/43 17/22/44 29/21/43

usemtl Wall_Cuverd_Inside_Main
f 5/5/21 6/6/19 15/26/20 16/25/19
f 20/30/24 19/29/22 3/28/23 4/27/22
f 11/13/27 12/14/25 9/31/26 10/12/25
f 23/5/48 5/6/46 16/26/47 28/25/46
f 30/30/51 20/29/49 4/28/50 22/27/49
f 26/13/54 11/14/52 10/12/53 25/33/52

